<svg xmlns="http://www.w3.org/2000/svg" viewBox="0 0 240 240">
  <rect width="240" height="240" rx="40" fill="white"/>
  <g transform="translate(30,30)">
    <!-- Blue -->
    <path d="M53.6 121.8a15.6 15.6 0 1 1-15.6-15.6h15.6v15.6zm7.8 0a15.6 15.6 0 0 1 31.2 0v39a15.6 15.6 0 0 1-31.2 0v-39z" fill="#36C5F0"/>
    <!-- Green -->
    <path d="M76.9 53.6a15.6 15.6 0 1 1 15.6-15.6v15.6H76.9zm0 7.8a15.6 15.6 0 0 1 0 31.2H38a15.6 15.6 0 0 1 0-31.2h38.9z" fill="#2EB67D"/>
    <!-- Red -->
    <path d="M126.4 58.3a15.6 15.6 0 1 1 15.6 15.6h-15.6V58.3zm-7.8 0a15.6 15.6 0 0 1-31.2 0V19.4a15.6 15.6 0 0 1 31.2 0v38.9z" fill="#E01E5A"/>
    <!-- Yellow -->
    <path d="M103.1 126.4a15.6 15.6 0 1 1-15.6 15.6v-15.6h15.6zm0-7.8a15.6 15.6 0 0 1 0-31.2H142a15.6 15.6 0 0 1 0 31.2h-38.9z" fill="#ECB22E"/>
  </g>
</svg>
