<svg xmlns="http://www.w3.org/2000/svg" viewBox="0 0 100 100">
  <rect width="100" height="100" rx="16" fill="white"/>
  <g transform="translate(15,15) scale(0.7)">
    <path d="M26.5 29.5a7.5 7.5 0 1 1-15 0 7.5 7.5 0 0 1 15 0zm2 0a7.5 7.5 0 0 1 15 0v19.5a7.5 7.5 0 0 1-15 0V29.5z" fill="#E01E5A"/>
    <path d="M70.5 26.5a7.5 7.5 0 1 1 0 15H51V34a7.5 7.5 0 0 1 7.5-7.5h12zm0 17a7.5 7.5 0 0 1 0 15H51a7.5 7.5 0 0 1 0-15h19.5z" fill="#ECB22E"/>
    <path d="M73.5 70.5a7.5 7.5 0 1 1 15 0 7.5 7.5 0 0 1-15 0zm-2 0a7.5 7.5 0 0 1-15 0V51a7.5 7.5 0 0 1 15 0v19.5z" fill="#2EB67D"/>
    <path d="M29.5 73.5a7.5 7.5 0 1 1 0-15H49v7.5a7.5 7.5 0 0 1-7.5 7.5h-12zm0-17a7.5 7.5 0 0 1 0-15H49a7.5 7.5 0 0 1 0 15H29.5z" fill="#36C5F0"/>
  </g>
</svg>
